<?xml version="1.0" standalone="no"?>
<!DOCTYPE svg PUBLIC "-//W3C//DTD SVG 1.1//EN" "http://www.w3.org/Graphics/SVG/1.1/DTD/svg11.dtd" >
<svg xmlns="http://www.w3.org/2000/svg">
<metadata>Generated by IcoMoon</metadata>
<defs>
<font id="icomoon" horiz-adv-x="1024">
<font-face units-per-em="1024" ascent="960" descent="-64" />
<missing-glyph horiz-adv-x="1024" />
<glyph unicode="&#x20;" horiz-adv-x="512" d="" />
<glyph unicode="&#xe900;" glyph-name="multimedia-file" d="M209 961c-45.98-12.3-74.98-41.62-87-88-1.34-282.66-1.34-565.32 0-848 12.020-46.36 41.020-75.68 87-88 201.32 0 402.66 0 604 0 46.86 12.54 75.86 42.54 87 90 1.32 224.68 1.32 449.34 0 674-1.34 2.68-2.68 5.34-4 8-57.4 56.74-114.060 114.060-170 172-26.86 27.86-54.52 54.54-83 80-144.68 0-289.34 0-434 0zM231 901c123.32 0 246.66 0 370 0-0.34-50.66 0-101.32 1-152 12.2-50.28 43.86-79.96 95-89 47.98-1 95.98-1.32 144-1 0.32-204 0-408-1-612-3.040-29.7-19.38-46.020-49-49-191.4-1.96-382.72-1.3-574 2-21.12 8.54-32.78 24.2-35 47-1.34 268-1.34 536 0 804 3.38 29.74 19.72 46.4 49 50zM661 855c44.92-43.92 89.58-88.26 134-133-31.34-1.32-62.68-1.32-94 0-18.2 5.54-30.54 17.2-37 35-2.78 32.6-3.78 65.26-3 98zM316.1 597.88c130.68 0.34 261.34 0 392-1 4.26-2.24 7.92-5.24 11-9 3.32-131.84 4-263.84 2-396-2.24-4.24-5.24-7.92-9-11-131.82-3.32-263.82-3.98-396-2-4.24 2.24-7.9 5.24-11 9-3.32 131.84-3.98 263.84-2 396 3.4 5.72 7.72 10.38 13 14zM342.1 557.88c-0.32-70.66 0-141.34 1-212 16.68 22.66 33.34 45.34 50 68 15.34 19.040 33.66 22.7 55 11 19.24-24.14 38.24-48.48 57-73 18.8 20.62 37.8 40.94 57 61 14.48 7.16 28.48 6.48 42-2 25.68-25.66 51.34-51.34 77-77 1 74.66 1.34 149.34 1 224-113.32 0-226.66 0-340 0zM424.1 387.88c-26.52-36.88-53.52-73.54-81-110-1-19.98-1.32-39.98-1-60 70.020-0.34 140.020 0 210 1-41.62 57.28-84.28 113.6-128 169zM580.1 373.88c-16.98-18.66-33.66-37.66-50-57 24.98-31.96 48.98-64.62 72-98 26.66-1 53.34-1.34 80-1 0.34 19.34 0 38.68-1 58-32.84 33.84-66.5 66.52-101 98z" />
<glyph unicode="&#xe903;" glyph-name="select" d="M139 897c181.32 0.34 362.66 0 544-1 13.96-5.6 20.64-15.94 20-31 0.64-15.040-6.040-25.38-20-31-174.68-0.66-349.34-1.32-524-2-18.34-2.32-28.68-12.66-31-31-1.34-234.66-1.34-469.32 0-704 2.32-18.32 12.66-28.66 31-31 234.66-1.32 469.32-1.32 704 0 18.32 2.34 28.66 12.68 31 31 0.66 174.68 1.32 349.34 2 524 5.6 13.98 15.94 20.66 31 20 15.040 0.66 25.38-6.020 31-20 1.32-181.32 1.32-362.66 0-544-10.34-39.66-35.34-64.66-75-75-248-1.32-496-1.32-744 0-39.68 10.34-64.68 35.34-75 75-1.34 248-1.34 496 0 744 10.68 39.7 35.68 65.040 75 76zM921 897c32.5-3.52 43.5-20.86 33-52-138.68-181.32-277.34-362.66-416-544-13.9-13.12-29.56-15.46-47-7-87.68 87.68-175.34 175.34-263 263-12.4 28.56-3.4 46.56 27 54 7.040-1.2 13.72-3.54 20-7 77.66-77.66 155.32-155.32 233-233 130.18 171.7 260.84 343.040 392 514 6.12 5.9 13.12 9.9 21 12z" />
<glyph unicode="&#xe904;" glyph-name="group-icon" horiz-adv-x="1216" d="M279.641 961.351c15.292 0 30.612 0 45.931 0 95.078-18.994 147.332-77.084 156.707-174.269-0.459-5.836-0.919-11.699-1.351-17.562-44.499-36.691-72.409-83.541-83.757-140.496-90.431-45.85-169.703-31.449-237.763 43.23-51.47 80.083-47.877 157.518 10.807 232.359 30.882 30.099 67.357 49.012 109.425 56.739zM887.557 961.351c15.292 0 30.612 0 45.931 0 96.321-20.912 148.548-80.785 156.707-179.673-9.348-109.587-68.789-169.487-178.322-179.673-26.343 0.297-51.551 5.701-75.652 16.211-11.537 70.005-46.229 124.933-104.021 164.813 6.16 99.401 57.955 158.842 155.356 178.322zM595.757 777.625c97.077 3.080 161.462-41.068 193.182-132.391 18.913-103.102-19.372-175.62-114.828-217.499-90.863-24.046-162.462 2.513-214.797 79.704-40.122 83.973-27.964 159.166 36.475 225.604 29.585 23.83 62.899 38.69 99.968 44.58zM-1.351 172.412c0 74.76 0 149.52 0 224.253 26.262 120.367 100.995 185.671 224.253 195.884 57.684 2.107 115.315 1.648 172.918-1.351 3.431-59.116 25.965-109.56 67.546-151.303-141.82-58.279-205.773-164.569-191.831-318.818-92.889 7.052-183.861 24.182-272.887 51.335zM1214.48 396.665c0-73.841 0-147.683 0-221.551-81.082-34.205-165.731-52.227-253.974-54.037 10.213 87.999-11.861 166.353-66.195 235.061-35.962 38.015-78.732 65.493-128.338 82.406 43.527 42.527 66.033 94.321 67.546 155.356 63.088 1 126.149-0.351 189.129-4.053 106.156-22.831 170.081-87.243 191.831-193.182zM701.129-62.649c-45.040 0-90.080 0-135.092 0-86.918 8.133-172.027 26.127-255.325 54.037-2.459 74.814-1.567 149.574 2.702 224.253 20.021 99.32 79.029 161.895 176.971 187.778 41.771 3.026 83.649 4.377 125.636 4.053 89.35 15.617 168.163-5.539 236.412-63.493 32.071-33.044 53.226-72.22 63.493-117.53 2.972-42.23 4.323-84.541 4.053-126.987-0.919-36.016-1.81-72.031-2.702-108.074-69.356-29.936-141.415-47.958-216.148-54.037z" />
<glyph unicode="&#xe905;" glyph-name="send-forward" d="M1023 99c-4.966 81.17-20.634 160.504-47 238-83.056 214.094-238.722 336.094-467 366 0.334 58.004 0 116.004-1 174-7.362 17.367-20.362 23.701-39 19-153.846-107.831-307.18-216.498-460-326-4.101-3.93-7.434-8.264-10-13 0-8 0-16 0-24 6.277-7.94 13.611-14.94 22-21 145.019-102.842 289.686-206.176 434-310 4.776-3.722 10.108-6.388 16-8 17.456-3.44 29.788 2.894 37 19 1 57.33 1.334 114.662 1 172 24.8-0.83 49.466-3.164 74-7 205.432-38.762 333.1-159.762 383-363 3.666-3.666 7.334-7.334 11-11 19.72-7.538 35.052-2.538 46 15 0 26.666 0 53.334 0 80zM941 229c-91.138 123.95-213.804 194.95-368 213-34.546 4.496-69.212 5.83-104 4-11.89-4.054-18.89-12.388-21-25-0.334-44.682-1.334-89.348-3-134-120.666 86.334-241.334 172.666-362 259 121 86.334 242 172.666 363 259 0.666-44 1.334-88 2-132 1.030-15.020 8.696-24.688 23-29 241.348-21.478 395.68-148.478 463-381 3.294-11.168 5.626-22.502 7-34z" />
<glyph unicode="&#xe906;" glyph-name="setting" d="M361 905c-11.414-2.58-22.746-6.246-34-11-46.498-19.061-88.164-45.394-125-79-7.371-10.805-11.038-22.805-11-36 5.916-22.342 10.582-45.008 14-68-8.305-76.638-50.971-118.97-128-127-19.382-7.378-31.715-21.044-37-41-8.52-45.618-11.186-91.618-8-138 0.996-15.644 3.663-30.978 8-46 7.123-15.788 18.789-26.788 35-33 25.011-2.084 48.344-9.418 70-22 56.428-44.72 70.096-100.386 41-167-3.547-19.142 0.453-36.476 12-52 44.168-39.604 94.502-69.27 151-89 20.276-5.596 38.942-2.264 56 10 13.334 18.666 29.334 34.666 48 48 56.428 28.988 108.096 21.988 155-21 20.478-32.382 48.812-42.050 85-29 42.9 17.766 82.234 41.098 118 70 17.444 12.556 26.11 29.556 26 51-1.792 15.724-5.458 31.058-11 46-6.168 87.238 34.166 137.572 121 151 20.538 9.204 32.87 24.87 37 47 6.594 41.088 8.594 82.42 6 124-1.664 18.984-4.998 37.652-10 56-8.32 16.354-21.32 27.354-39 33-75.692 14.356-113.36 60.022-113 137 4.722 17.818 8.388 35.818 11 54 0.3 20.402-7.7 36.735-24 49-42.728 34.377-90.062 61.043-142 80-18.336 4.278-35.668 1.612-52-8-11.334-11.333-22.666-22.667-34-34-50.666-36-101.334-36-152 0-11.334 11.333-22.666 22.667-34 34-12.332 7.278-25.666 10.945-40 11zM511 609c73.45-5.2 123.782-41.868 151-110 19.118-73.982-1.216-134.316-61-181-57.16-34.464-115.16-35.798-174-4-64.26 46.088-86.594 107.756-67 185 27.422 68.204 77.756 104.87 151 110z" />
<glyph unicode="&#xe916;" glyph-name="delete" d="M406 905.8c-14.2-2.4-36.6-13.2-47.8-23-13-11.4-23-28.2-31.2-53-8.8-26.2-16-36.4-30.8-44.2l-10.6-5.6h-72.4c-46.2 0-75-0.8-80.2-2.2-22.8-6.4-31.4-35.2-15.4-52.6 11.2-12-14.4-11.2 386.8-11.2 363.4 0 368.4 0 376.4 4 9.4 4.6 16.4 13.8 18.2 24.2 1.6 8.4-3.6 22.4-10.6 28.4-9.6 8.6-16 9.2-91.8 9.4-76.2 0-76 0-91 9.6-10 6.6-16.2 16.6-24.4 40-8.8 25.6-12.8 33.2-23.4 45.2s-25 21.4-42 27.6c-12.6 4.4-14.4 4.6-105.8 5-51.2 0-98-0.6-104-1.6zM598.6 839.2c9.8-4 13.2-9.2 21.4-31.6 4-11.4 8-22.2 9-24 1.4-3.4-5.4-3.6-124.6-3.6h-126l7.8 22.6c9 25.4 12 30.4 21.8 35.6 6.4 3.6 13.2 3.8 95.6 3.8 70.2 0 89.8-0.6 95-2.8zM206.8 626.2c-9.4-4.2-16.6-13.2-18-22.6-1.4-8 22-358.2 26.4-395.6 5.4-48.2 11.6-71.6 25.4-99 16.6-32.4 49.4-57.2 88-67 33.8-8.4 44.6-9 183.4-9s149.6 0.6 183.4 9c47.8 12 82.4 44.2 98.8 91.4 13 38.2 15 56.2 32 313.2 10.2 152.8 10.2 155.8 6.6 163.6-11.2 25.2-45.4 25.8-58.2 1.2-2.4-4.8-5.6-42.8-14.8-181.2-15-224-16.8-243.2-26-272.2-5.4-17-8.6-22.8-18-33-21.8-23.6-58.6-29-203.8-29s-182 5.4-203.8 29c-9.4 10.2-12.6 16-18 33-9.4 30.2-10.6 42.4-26 272.2-12.4 184.8-12 181.4-22.6 191.2-9.8 9.2-21.6 10.8-34.8 4.8z" />
<glyph unicode="&#xe917;" glyph-name="editing" d="M879 957.4c-4.4-1.6-11.6-4.6-16-7-5-2.6-97.4-93.8-241.2-237.8l-233.2-233.6-15.6-78c-13.4-68-15-78.8-13.2-85.2 2.6-8.6 13.4-18.8 21.8-20.8 4-0.8 30.4 3.6 77.8 13 39.4 7.8 74.8 15 78.6 16 5.6 1.6 53.2 48.2 241.2 236.4 263.4 263.8 243.8 241.8 243.8 273.6-0.2 27.4-4 33.8-47.6 77.4-29.4 29.4-38.6 37.4-48 41.6-13.8 6.4-36.2 8.4-48.4 4.4zM932.8 868.2c27.2-27.2 31.6-32.4 30.6-36.4-0.8-2.6-9.4-12.8-19.4-22.8l-18-18-71 71 19.2 19c10.8 10.6 20.8 19 23 19s16.8-12.8 35.6-31.8zM848 783l35-35-367.6-367.6-42.8-8.4c-23.4-4.8-43.2-8-44-7.4-0.6 0.8 2.6 20.4 7.2 43.8l8.4 42.6 183.4 183.6c100.8 100.8 183.8 183.4 184.4 183.4s16.8-15.8 36-35zM89 794c-38.8-8-70.4-35.8-83.4-73.6l-4.6-13.4v-682l4.6-13.2c11.4-33.2 37-58.8 70-70.2l13.4-4.6h682l13.4 4.6c32.6 11.4 57.2 35.6 70 69.6l4.6 11.8 0.6 234.4c0.4 232.6 0.4 234.6-3.6 242.6-4.6 9-16 16-26 16s-21.4-7-26-16c-4-7.8-4-11.2-4-234.6 0-254.8 1-238.6-15-254.4-16.2-16.2 12.6-15-355-15s-338.8-1.2-355 15c-16.2 16.2-15-12.6-15 355s-1.2 338.8 15 355c15.8 16-0.4 15 254.4 15 223.4 0 226.8 0 234.6 4 9 4.6 16 16 16 26s-7 21.4-16 26c-7.8 4-11 4-237.4 3.8-126.2-0.2-233.2-1-237.6-1.8z" />
<glyph unicode="&#xe918;" glyph-name="arrow" d="M411.6 881.4c-6.2-2.6-14.8-7.6-19-11-15.4-12.4-376.4-375.6-381.4-384-7.6-12.2-12-30.8-10.4-45 2.8-26.4-8-14.6 202.8-225.8 159-159.2 195-194.2 204-198.8 15.6-7.8 40.4-9.2 57-2.8 17.8 6.8 30.6 18 38.2 33.8 5.6 12 6.2 15 6.2 32.2 0 33 3.2 28.8-112.4 145.8-54.8 55.6-106.8 107.2-115.8 115-9 8-23.6 18.2-33.4 23.2l-17.2 9 734.8 2 11.4 4.6c16.2 6.6 32 21.6 40 38 6 12 6.6 15 6.6 30.4-0.2 14-1 19-5.4 28.4-7 15.2-19.8 28.6-34.6 36.2l-12 6.4-742 2 19 10 19 9.8 115.2 115.2c133 132.8 126.8 124.8 126.8 159 0 17.8-0.6 21.2-5.6 31.2-3 6.2-10 15.6-15.4 20.6-14.4 13.6-25.2 17.8-47 18.6-15.4 0.6-19.6 0-29.4-4z" />
<glyph unicode="&#xe919;" glyph-name="paper-clip" d="M715 933.8c-53.8-3.4-104.8-22.2-151-55.4-20-14.4-503.6-497.2-520-519-35.4-47-50.2-107.6-41-165.4 26.4-162.2 211-239.6 346.4-144.8 14.2 10 425.2 418 454.4 451.2 24.4 27.8 35.4 53.4 37.6 88.6 1.6 24.8-3 46.4-14.8 71-7.6 15.8-11.8 21.6-26.4 36-14.2 14.4-20.4 19-36.2 26.8-24.6 12.2-42.6 15.8-70 14.6-15.2-0.6-25.4-2.4-37-6-33.6-11-24.2-2.4-254.8-232.4-147.2-146.8-213.8-214.4-216.4-220-8.4-17.8-0.8-39.2 17.2-48.4 7.2-3.8 24.4-4.2 31-0.6 2.8 1.4 99.6 96.6 215 211.8 199.8 199.4 210.6 209.8 223 215.2 41 17.8 86.8-7.2 93.8-51 2.2-13.2-0.8-30.6-7-42-3.4-6.4-76-80.2-229.4-233.4-219.2-218.6-224.8-224.2-240.6-232.2-43-22-90.8-23.2-132-3.4-51.6 24.8-82.8 74.4-82.8 132 0 35.4 10.8 66 33 93 6 7.2 119.4 121.6 252.4 254.2 261.2 260.8 254.4 254.4 292.4 270.6 146.2 62.6 306.8-47.6 299.6-205.8-1.8-40.4-13.8-76.6-36.6-111.4-7.4-11.2-66-71.2-256.2-261.6-174-174.4-247.4-249.2-249.6-254.4-4-9.8-3.8-18.8 0.8-28.6 4.2-9.2 10.8-15.8 18.8-18.8 8-3.2 22.8-2.6 30.2 0.8 9.4 4.6 494.4 490.6 507.6 509 20 27.6 30.8 47.8 40.8 77 17.4 49.8 21 101 10.6 151.8-12 60-39.4 109.6-84 152.2-59.2 56.4-135.6 84-218.8 78.8z" />
<glyph unicode="&#xe91a;" glyph-name="phone" d="M179 957.2c-13.6-4.4-29.4-13.2-43-24.2-20.8-17-94.2-92.6-105.6-108.8s-20.8-38.8-25.6-60.8c-4-19-4-67.2 0.2-92.8 13.2-82.6 57-184.6 120-280.6 87.4-132.8 200.8-246.8 326.4-327.6 128.6-82.8 243.8-126.4 333.8-126.4 46 0 76 9.2 107 32.6 16.8 12.6 104.6 103.4 113.8 117.6 11 17 16.2 34.8 16.2 55 0.2 19.4-2.4 29.4-11.8 47.8-6.2 12.4-16 23-82.2 89.8-91.6 92.2-99.8 98.4-136.2 100.6-19.2 1.4-34.4-1.8-52.4-11-12.6-6.2-20.6-13.2-60.2-52.2l-45.8-45.2-17.2 9c-43 22.4-97 63.2-143.2 108-59.8 58.2-105.6 116.4-129.8 164.8l-8.8 17.8 42.4 42.2c24.2 24.2 45.8 47.6 50.6 55 22.6 34.4 22.6 76.2-0.2 110.8-11.2 17-148 154-165.2 165-17.8 11.8-34.4 16.4-57 16.2-10 0-21.8-1.2-26.2-2.6z" />
<glyph unicode="&#xe91b;" glyph-name="check" horiz-adv-x="1849" d="M1294.023 955.434c-6.522-2.283-18.262-8.153-26.089-12.718-7.501-4.566-129.141-123.597-270.023-264.479l-256-256.326 159.796-159.796 260.239 259.913c283.394 283.394 274.589 273.61 278.502 315.027 6.196 65.875-46.308 123.271-112.51 122.945-12.066-0.326-27.068-2.283-33.916-4.566zM1699.057 954.782c-8.153-2.935-18.915-8.153-24.459-12.066-5.218-3.587-173.819-170.232-374.054-370.466l-364.596-363.944-176.754 176.428c-166.971 166.318-178.059 177.080-195.995 183.603-56.092 20.545-116.423-3.587-142.512-56.418-17.61-35.22-15.654-73.702 4.566-105.987 4.239-6.522 106.313-110.879 227.302-232.52 178.711-179.363 222.736-222.084 236.107-227.954 24.132-11.088 62.288-12.392 88.051-2.935 18.915 7.175 31.959 19.893 436.015 423.297 468.953 468.301 434.385 430.145 434.385 481.671 0 21.197-1.304 29.35-8.479 44.678-11.414 24.459-30.655 45.004-53.483 56.418-23.154 11.74-62.614 14.675-86.094 6.196zM92.617 575.185c-34.894-7.175-65.549-31.307-81.855-64.571-7.827-15.98-9.131-22.502-9.131-46.308 0-51.526-10.762-38.808 241.977-290.568 176.102-175.45 224.367-222.084 237.411-227.954 11.414-5.544 23.806-8.153 42.395-9.131 38.482-1.957 57.070 5.87 90.986 38.482 22.176 21.197 27.068 24.785 30.655 20.871 2.283-2.609 7.175-4.566 11.088-4.566 6.848 0 6.848 0-0.652 8.153l-7.827 8.479 73.050 73.050-159.796 159.796-15.327-15.327-15.327-15.654-174.797 173.819c-158.166 157.839-176.428 174.797-194.038 182.298-22.176 9.783-49.243 13.371-68.81 9.131z" />
<glyph unicode="&#xe91c;" glyph-name="cope" d="M285.6 888.8c-37-8.8-69.2-41-77.4-76.8-1.2-5-2.2-20-2.2-33.4v-24.6h-24.6c-27.2 0-42-3-58.2-11.6-14.6-7.8-35.4-29-43-44-13-25.6-12.4-9.2-11.8-324.8l0.6-286.6 4.4-11.4c12.4-32.4 33.8-53.8 66.2-66.2l11.4-4.4 284-0.6c205-0.4 287.8 0 297.6 1.8 38.6 6.4 74.6 40 83.2 77.8 1.2 5 2.2 20 2.2 33.6v24.4h24.6c39.6 0 58.2 6.8 81.6 30 15.8 15.6 26.4 35.4 29.6 55.4 1.8 9.8 2.2 92.6 1.8 297.6l-0.6 284-4.6 12c-12.8 33.8-39.6 58.4-73.2 67-15.6 4-21.2 4-298 3.8-233.4-0.2-284.2-0.6-293.6-3zM863.6 822.8c9.8-4 18-12 22.6-21.8 3.6-7.6 3.8-19.6 3.8-283 0-183.2-0.8-277.4-2-282.4-5.4-19-20-27.6-49.4-29.2l-20.6-1v231c0 205.4-0.4 232-3.2 241.8-10.4 35-37.6 62.2-72.6 72.6-9.8 2.8-36.2 3.2-240.6 3.2h-229.6v21c0 22.8 2.6 31.4 12.4 40.4 11.8 11-4.4 10.4 295.2 10.6 245.6 0 277.4-0.4 284-3.2zM730.2 684.4c5.6-2.8 11.6-7.8 15-12.8l5.8-8.2 0.6-281.8c0.4-276.6 0.4-281.8-3.4-289.4-5-9.6-14.2-17.4-23.8-20.2-5-1.2-99.4-2-282.6-2h-275.4l-10.6 5.6c-8.6 4.4-11.8 7.6-16.2 16.2l-5.6 10.6v554.8l4.6 8.8c5.6 11.2 16.2 19.6 27.6 21.8 4.8 1 130.8 1.6 281.8 1.6l273-0.4 9.2-4.6z" />
<glyph unicode="&#xe91d;" glyph-name="file" d="M197.8 955.4c-35-12-61.2-38.4-71.8-73.2-4-12.4-4-20.8-4-434.2s0-421.8 4-434.2c10.6-34.8 36.8-61.2 71.8-73.2l13.2-4.4h602l13.2 4.4c27.6 9.4 50.2 28.2 63.2 52.6 13.4 25.2 12.6 1.2 12.6 370.8-0.2 259-0.6 336-2.6 339.2-3.6 6.4-243.4 248.4-250.6 252.8-6.2 4-10.8 4-222 4l-215.8-0.2-13.2-4.4zM602.4 821.6c0.6-75.8 0.8-79 5-90.6 10.2-26.6 30.2-48.8 55.6-61 8.8-4.2 21.4-8.6 27.8-9.8 7-1.4 41-2.2 81.6-2.2h69.6l-0.4-310.4c-0.6-293-0.8-311-4.2-318.4-5.6-12.8-12.2-19.8-23.6-26.2l-10.8-6h-582l-10.8 6c-11.4 6.4-18 13.4-23.6 26.2-3.4 7.4-3.6 29.2-4.2 411.6-0.2 269.8 0.2 407.6 1.6 415 4 21.8 20.6 39 40.6 42.4 4.6 0.6 91.4 1.4 192.8 1.6l184.4 0.2 0.6-78.4zM750.6 720.4c-51.4-0.6-56.8 0.4-71.2 13.4-15 13.4-16.2 18.6-17 73.2l-0.6 48 67-67 67.2-67-45.4-0.6zM253.6 623.8c-8.6-4.4-15.6-16.2-15.6-25.8 0-10 7-21.4 16-26 7.6-4 11.4-4 161-4s153.4 0 161 4c9 4.6 16 16 16 26s-7 21.4-16 26c-7.6 4-11.4 4-161.4 4-149-0.2-153.8-0.2-161-4.2zM253.6 473.8c-8.6-4.4-15.6-16.2-15.6-25.8 0-10 7-21.4 16-26 7.8-4 11.2-4 259-4s251.2 0 259 4c9 4.6 16 16 16 26s-7 21.4-16 26c-7.8 4-11.2 4-259.4 4-246.6-0.2-251.8-0.2-259-4.2zM253.6 313.8c-8.6-4.4-15.6-16.2-15.6-25.8 0-10 7-21.4 16-26 7.8-4 11.2-4 259-4s251.2 0 259 4c9 4.6 16 16 16 26s-7 21.4-16 26c-7.8 4-11.2 4-259.4 4-246.6-0.2-251.8-0.2-259-4.2z" />
<glyph unicode="&#xe91e;" glyph-name="user" d="M466.4 957.2c-102.4-19.4-174-89.8-197.8-194.2-5.2-22.8-5.2-88.8 0-112.8 12.4-57.2 38.8-106.2 77.4-143.6 22.2-21.4 36.2-31.4 61-43.6 38.2-18.8 64.4-25 105-25s66.8 6.2 105 25c69.6 34.2 120.2 102.6 138.4 187.2 5.2 24 5.2 90 0 112.8-11.6 51.4-34 93.4-67.2 126.6-31.8 31.8-67.2 51.4-114 63.8-16.4 4.4-24.4 5.2-56.2 5.8-25.6 0.4-41.4-0.2-51.6-2zM560.6 877.2c85.6-25.2 136-110.2 120.6-202.8-11.6-68.8-52.8-124.4-109.8-148-80-33.4-168 4-210.2 89-38 76.8-23.2 173 34.8 225.2 22 19.8 52.2 34.8 81.4 40.4 23.8 4.4 60.8 2.8 83.2-3.8zM464 382.8c-66.2-5.6-94.8-9.6-132.2-19-86.8-21.6-160-63.2-207.2-117.8-51.6-59.8-80.2-132-88.4-224-4.8-51.8-2.2-67.8 13-79.2l7.4-5.8h910.8l7.4 5.8c15.2 11.4 17.8 27.4 13 79.2-10.8 120-57 209.2-140.4 271.6-61.4 46-141.4 74-243.4 85.4-25.4 3-120.4 5.4-140 3.8zM555 306c127.4-7 220.4-41.6 280.2-104.4 38.2-40 66.4-103.8 73.8-166.6 0.6-5.4 1.6-13 2.2-16.4l1-6.6h-800.4l1 6.6c0.6 3.4 1.6 11 2.2 16.4 7.4 62.8 35.6 126.6 73.8 166.6 58.4 61.4 153.8 97.6 274.6 104.2 42.8 2.4 51.6 2.4 91.6 0.2z" />
<glyph unicode="&#xe91f;" glyph-name="notification" d="M482.2 956.2c-24-9-41.4-24.8-52.8-48-6.2-12.8-6.4-14-7.4-47l-1-33.8-13-4.4c-92.6-31.4-168.4-112.4-195.4-209-9-32.4-10.6-49.2-10.6-111-0.2-96.8-3.6-136-16-185-16.8-66.8-51-133.4-94.6-185-30.8-36.2-29.4-34-29.4-46.6 0-12.8 3.8-20.4 13.2-26.6 5.6-3.6 12-3.8 147-3.8h141.4l5.2-16.4c7.4-24 17.6-40 38.2-60.6 20.6-20.8 40.6-32.2 67.8-39 21.4-5.4 53-5.4 74.4 0 27.2 6.8 47.2 18.2 67.8 39 20.6 20.6 30.8 36.6 38.2 60.4l5.2 16.6h141.4c135 0 141.4 0.2 147 3.8 9.4 6.2 13.2 13.8 13.2 26.6 0 12.6 1.4 10.2-29.6 47-45.4 53.4-81.6 126.4-97.2 195.6-9.6 42-11.2 63-12.4 148-1 86-2.2 101.2-10.2 131.8-14.8 57-41.8 102.6-86 145.4-32 31-71 55.4-109.6 68.6l-14 4.8-1 33.8c-1 33.2-1.2 33.8-7.8 47.6-9 18.4-24.8 34.2-43.2 43-13 6.4-15.8 7-36 7.4-18 0.6-24 0-32.8-3.2zM526.4 894.6c10.4-6.2 14-14.8 15.2-35.8l1-18.8h-61.2l1 18.8c1.2 20.8 4.4 28.4 14.8 35.4 7.4 4.8 21.2 5 29.2 0.4z" />
<glyph unicode="&#xe920;" glyph-name="video" d="M91 748c-42.4-8.6-77-40.8-88-82-4.4-16.4-4.4-419.6 0-436 9.8-37 37.8-66 77-79.2 10.6-3.6 22-3.8 265-3.8h254l14 4.4c33.2 10.4 60.4 37 73.6 71.8l4.4 11.8 0.6 207.4c0.6 231.2 1 221.4-13 248.2-10 19-28.4 37.2-47.2 46.4-27.4 13.4-16 13-287.4 12.8-134.8-0.2-248.6-1-253-1.8zM940.2 687.8c-5.2-1-23-10-43-21.4-18.8-10.8-60.6-34.8-92.8-53.4l-58.4-33.8 0.4-131 0.6-130.8 90-51.8c50.6-29 94.8-53 100.8-54.8 31.2-9.4 64.4 5.4 80.6 35.6l4.6 8.6 0.6 190.4c0.4 186 0.4 190.4-3.6 201-11.8 31.6-44.2 48.4-79.8 41.4z" />
<glyph unicode="&#xe921;" glyph-name="close" d="M996.191 861.998l-73.621 73.621-898.181-898.18 73.622-73.626 898.18 898.184zM101.431 932.169l-73.622-73.622 898.184-898.181 73.621 73.621-898.183 898.182z" />
<glyph unicode="&#xe922;" glyph-name="group" d="M327.2 810.8c-19.6-4.4-37.6-11.6-56.2-22.4-20.4-11.8-50.6-41.8-62.2-61.4-35-60-35.6-131.8-1.2-190 13-22 44-53 65-64.8 30.6-17.2 57.4-24.2 92.6-24.2 38 0 70.8 9.2 99.2 27.8 42.2 27.6 68.6 65.2 80.8 115.2 5.4 21.4 4.8 61-1 84-16.8 65.6-63 113-130.2 133.4-17.8 5.6-67 6.8-86.8 2.4zM394.6 744.8c43.6-11.2 77-46.8 86.2-91.2 4-19.2 4-25.8 0-45.2-8.8-43.8-43-80-86-91.4-17.4-4.6-44.8-4.2-61.8 1.2-47.2 14.4-81 56.2-84.4 105-3.8 54.2 32.8 105.6 86.4 121 15.4 4.4 43.6 4.8 59.6 0.6zM718 700.8c-16.2-4.2-41.4-17.2-54.4-28.2-20.6-17.2-37.6-44.4-44.6-71.6-4-15.4-4-50.4 0-66 4-16 17-41.8 26.6-53.4 18.2-21.8 46.6-39.8 73.4-46.6 15.4-4 50.6-4 66 0 26.8 6.8 55.4 24.8 73 46 10 12.2 23 37.8 27 54 4 15.4 4 50.6 0 66-6.8 26.8-24.8 55.4-46 73-12.2 10-37.8 23-54 27-15 3.8-52.2 3.8-67-0.2zM777.4 633.6c8.4-3 15-7.6 23.8-16.4 15-15 20.8-28.6 20.8-49.2s-5.8-34.2-20.8-49.2c-15-14.8-29.2-21-49-21-20 0-34.4 6-49.4 21s-20.8 28.6-20.8 49.2c0 20.6 5.8 34.2 20.8 49.2 15.2 15.2 27.8 20.6 48.6 20.6 10.2 0.2 18-1 26-4.2zM315.4 395c-94.8-15.4-175-66.4-227.6-144.6-35-52.2-55.8-117.4-55.8-175 0-25.2 2.6-32.2 14.4-39.4 6.6-4 10.8-4 319.6-4h313l7.2 4.8c12.4 8.6 14.6 16 13 46-0.6 14.4-1.8 29.2-2.4 32.8l-1.2 6.4h136.4c152.6 0 145.6-0.6 155.4 14.4 5 7.4 5.2 8.2 4 33-2.8 69.8-38.6 136.2-96.2 179.2-63 46.6-148.2 59.4-222.8 33-30.6-10.6-60-28-81.4-48l-11.8-11-17 12.6c-34.2 25.4-83.6 47-129.2 56.8-26.4 5.8-91 7.4-117.6 3zM412 328.8c78.2-14 145.8-61.8 186.8-131.8 14.2-24.4 28.8-65.2 32.2-90.4l1.4-10.6h-532.4v5.6c0 3 2.2 14.6 5 26 33.2 137.2 168.6 225.8 307 201.2zM775.2 327.8c53.4-7.4 101.6-40.2 129.6-88 5.2-9 15.2-35 18-46.2l1.2-5.6h-247.4l-6.6 14.6c-7.8 17.8-24.8 46.6-36 61.4l-8.2 11 10.2 9.4c28.2 26.2 74 44.4 114.4 45.4 5.2 0 16.2-0.8 24.8-2z" />
<glyph unicode="&#xe923;" glyph-name="night-mode" d="M468 955c-67-15.4-123.2-39.4-178-76-113.4-76.2-191.2-192.6-217.8-326.4-17-84.8-12.4-176.2 13-255.2 3.8-11.8 7.4-21.4 7.8-21.4s7.8 5 16.2 11.2c78.2 56 187.2 54.4 265.4-4.4 30.2-22.6 58.4-58.2 71.6-90.6 5.6-13.8 7.2-15.8 17-21.8 24.4-15 47-41 59.6-68.8 10.6-23 14-39.2 13.8-66.6 0-30-4.6-48-18.6-74.6-5.6-10.4-9.8-19.2-9.4-19.6 0.2-0.4 12.6-1.6 27.4-3 68.6-6 151.4 5 217.8 29.4 27.8 10.2 79.8 36.4 104.2 52.2 59.6 39.2 112 91.6 150.4 150.4 17.4 27 19.6 38.2 9.2 51.2-9.8 12.4-24 14-46.2 5.2-91.8-36.6-191.2-39.6-285.2-9-152.6 49.8-262.8 181.8-285.2 341-3.6 26.6-4.2 81-1 107.2 10.4 83.6 45.6 162.4 100.4 224.4 23.2 26.2 24 27.4 25 37 2 17.2-9.8 31.2-27.2 32.4-5 0.4-18.6-1.4-30.2-4.2zM855.6 864.4c-2.4-3.2-7.6-12-11.4-19.8-6.8-14-6.8-14.2-24-22.8l-17.2-8.8v-15.8l34-16.8 9.6-19.2c7.6-15.2 10.8-19.4 14.8-20.4 9-2.4 11.6 0.6 22.6 25.8l5.8 13.4 18.2 8.4c14 6.4 18.4 9.2 19.2 13 2.2 8.8-1.8 13.2-19 20.4-9 3.8-17 7.8-17.8 9-1 1.2-4.8 9.2-8.4 18-3.8 8.6-8 16.8-9.6 18.4-4.4 4.6-11.6 3.2-16.8-2.8zM684 642.6c-3.8-4-14.2-21.4-23-38.4l-16-31-12-6.2c-6.6-3.4-21.2-10.4-32.6-15.8-15.4-7.2-21.2-11-23.4-15.2-4-7.8-3.8-15.8 0.6-23 3.8-6 7.4-8 47.8-27.4 9.4-4.6 18.2-10.2 20.4-13.2 2-3 10.6-19 18.8-35.6 16.6-33.2 21.4-38.8 33.6-38.8 12.6 0 17.6 6.2 32.8 40.4 7.4 16.8 15.8 33 18.4 35.8 2.8 3 9.2 7 14.2 9 5.2 1.8 14.6 6 21 9s14.6 6.6 18.4 7.8c3.8 1.2 9.6 4.8 13 8 5 4.8 6 7 6 15.4 0 16.4-0.8 17-47 36.6-11 4.8-22.4 11-25.2 14s-11.2 19.8-18.8 37.4c-14.8 35-17.8 38.6-32.4 38.6-6.2 0-9-1.4-14.6-7.4zM206 265c-60.6-12.2-112.2-60.2-127.2-118.4l-3.6-14.4-11.4-4.2c-44.2-16-71.4-65.6-61.6-112.4 7.8-37.4 40-69.6 77.4-77.4 7.2-1.4 58.6-2.2 160-2.2 127.8 0 151.2 0.4 161.4 3 39.6 10.2 68.4 41.4 75.2 81.6 7.4 44.6-20 92.2-62.2 107.6l-11.2 4-5.6 19c-17.4 57.6-67.2 102.6-126.6 114-18.2 3.4-47 3.4-64.6-0.2z" />
<glyph unicode="&#xe924;" glyph-name="check-one" d="M818.4 779c-5.6-1.6-12.8-4.4-16-6.2-3-2-98.4-96.2-211.8-209.6l-206.6-206.2-78.4 78.2c-43.2 43-81 79.6-84 81.6-9.6 5.8-29.2 9.8-40.8 8.2-18.8-2.2-32-10.8-56.4-35.8-26.8-27.8-31.2-36.8-30-62.2 0.6-11.2 2.2-18.8 5.2-25 3.2-6.6 39.6-44.2 133.8-138.4l129.6-129.2 11.2-2.4c9.4-2 12.8-2 22 0.6 10.6 3.2 16.8 9.4 269 261.8 287.4 287.8 264.8 262.8 264.8 291.8 0 23.2-5 32.6-30.6 59-16.6 17.4-25 24.2-34.2 28.8-15 7.4-31.8 9.2-46.8 5z" />
<glyph unicode="&#xe925;" glyph-name="dots" horiz-adv-x="265" d="M246.519 68.741c0 62.839-50.94 113.778-113.778 113.778s-113.778-50.938-113.778-113.778c0-62.839 50.94-113.778 113.778-113.778s113.778 50.938 113.778 113.778zM246.519 448c0 62.839-50.94 113.778-113.778 113.778s-113.778-50.938-113.778-113.778c0-62.839 50.94-113.778 113.778-113.778s113.778 50.938 113.778 113.778zM246.519 827.259c0 62.838-50.94 113.778-113.778 113.778s-113.778-50.94-113.778-113.778c0-62.838 50.94-113.778 113.778-113.778s113.778 50.94 113.778 113.778z" />
<glyph unicode="&#xe926;" glyph-name="lupa" horiz-adv-x="1100" d="M417.185 144.593c219.591 0 398.222 178.631 398.222 398.222 0 219.97-178.631 398.222-398.222 398.222-219.97 0-398.222-178.252-398.222-398.222 0-219.591 178.252-398.222 398.222-398.222zM417.185 291.366c-139.188 0-251.828 112.64-251.828 251.449 0 139.188 112.64 251.828 251.828 251.828 138.809 0 251.449-112.64 251.449-251.828 0-138.809-112.64-251.449-251.449-251.449zM663.704 163.556l170.667-170.667c151.704-151.704 360.296 37.926 189.63 189.63l-189.63 151.704-170.667-170.667z" />
<glyph unicode="&#xe927;" glyph-name="arrows" horiz-adv-x="1229" d="M1137.323 89.607h2.048c28.672-25.259 31.403-67.584 6.144-96.256s-67.584-31.403-96.256-6.144v2.048l88.064 100.352zM1050.624 908.124v2.048c29.355 24.576 71.68 20.48 96.256-8.875s20.48-71.68-8.875-96.256l-2.048 0.683-85.333 102.4zM1146.696 901.375c24.18-28.93 20.323-71.982-8.608-96.159l-416.734-348.274 418.017-367.26c28.324-24.883 31.116-68.014 6.226-96.338-24.883-28.324-68.014-31.116-96.338-6.233l-537.717 472.423 538.993 450.447c28.931 24.177 71.987 20.324 96.16-8.606zM659.456 89.607h2.047c28.673-25.259 31.403-67.584 6.144-96.256s-67.583-31.403-96.255-6.144v2.048l88.064 100.352zM572.757 908.124v2.048c29.355 24.576 71.68 20.48 96.256-8.875s20.48-71.68-8.875-96.256l-2.048 0.683-85.333 102.4zM668.83 901.375c24.179-28.93 20.322-71.982-8.606-96.159l-416.738-348.274 418.019-367.26c28.323-24.883 31.115-68.014 6.227-96.338-24.885-28.324-68.018-31.116-96.342-6.233l-537.715 472.423 538.996 450.447c28.93 24.177 71.982 20.324 96.159-8.606z" />
<glyph unicode="&#xe928;" glyph-name="bookmark" d="M194.6 957c-26.8-7.2-48.2-24.6-60-48.6l-7.6-15.2-0.6-455c-0.4-500.4-1.4-466 11.6-484 7.4-10.2 23-18.2 35.4-18.2 11.4 0 26.6 6 39.2 15.6 5.8 4.4 69.4 58 141.4 119.4 72 61.2 133.8 112.8 137 114.6 8.4 4.6 37.6 4.6 46 0 3.4-1.8 65.8-54.4 139-116.8 73.2-62.2 137-116.4 142-120 28.8-21.2 60.8-14.8 74.8 15.2l4.2 9 0.6 455c0.6 508.4 1.8 468-13.6 491.6-12.2 19-32.4 33.2-54.2 38.2-5.8 1.4-116 2-316.8 2-258.6 0-309.6-0.6-318.4-2.8z" />
<glyph unicode="&#xe929;" glyph-name="mic" d="M486 958.8c-3.8-0.6-14.6-2.8-23.8-5.2-75.4-18.4-134.8-77.6-154-153.6-2.2-9.2-4.2-17.4-4.2-18.4 0-0.8 33.4-1.6 74-1.6h74v-60h-150v-90h150v-60h-150v-90h150v-60h-74c-40.6 0-74-0.8-74-1.6 0-1 2-9.2 4.2-18.4 19.2-76.2 77.4-134 155-154.2 24.8-6.4 71.6-6.6 96.8-0.4 81.6 20.4 144.4 87 158.8 168.2l1.2 6.4h-148v60h150v90h-150v60h150v90h-150v60h148l-1.2 6.6c-12 67.8-60 128.4-123.6 156-26 11.2-45.8 15.4-76.2 16.4-14.2 0.4-29.2 0.2-33-0.2zM182 441.6c0-12.4 3.6-42 7.2-59.6 28-135.6 144.8-243.2 281.4-259.2l11.4-1.4v-125.4h-210v-60h480v60h-210v125.2l18.2 2.6c68.4 9.6 133.2 42.2 183.6 92.2 58.2 57.6 91.6 131.2 97.4 214l1.4 20h-60l-1.4-18.4c-3.6-48-19.2-92.8-46.2-133.6-12.8-19.2-51.8-58.2-71-71-30.8-20.4-65-34.6-102-42.4-23.6-4.8-76.4-4.8-100 0-56.6 11.8-100.4 35.6-141 76.2-12.2 12.2-26.6 29-32 37.2-27 40.8-42.6 85.6-46.2 133.6l-1.4 18.4h-59.4v-8.4z" />
<glyph unicode="&#xe92a;" glyph-name="megaphone" d="M-1 387c11.060-36.7 35.72-58.36 74-65 19.32-1 38.64-1.32 58-1 12.34-92.060 25.34-184.060 39-276 3.8-12.48 12.14-20.14 25-23 47.32-1.32 94.66-1.32 142 0 17 4.32 25.66 15.32 26 33-8.32 74.48-16.98 148.82-26 223 140.22-54.080 280.22-109.42 420-166 6.7-2.9 13.7-4.56 21-5 17.2 0.54 27.86 9.2 32 26 1.32 224.68 1.32 449.34 0 674-7.040 22.040-22.040 30.38-45 25-174.68-70-349.34-140-524-210-52.68-0.66-105.34-1.32-158-2-44.66-7.9-72.66-33.58-84-77 0-52 0-104 0-156zM739 751c2 0 4 0 6 0 0.66-187.32 0-374.66-2-562-154.68 62-309.34 124-464 186-2.66 63.8-2.66 127.48 0 191 153.76 61.14 307.1 122.8 460 185zM89 555c40.66 0 81.32 0 122 0 0-56.66 0-113.32 0-170-44.080-0.8-88.080 0.2-132 3-9.46 2.8-14.46 9.14-15 19-1.34 38.68-1.34 77.34 0 116 2.1 15.76 10.44 26.42 25 32zM197 321c25.4 3.58 49.080-1.1 71-14 8.26-73.36 16.58-146.7 25-220-21.18-0.64-42.18 0.040-63 2-11.1 77.36-22.1 154.68-33 232zM1023 685c0-8 0-16 0-24-3.44-6.44-8.1-12.1-14-17-36.68-28.66-73.34-57.32-110-86-27.52-8.24-43.52 1.76-48 30 0.76 10.2 4.76 18.88 12 26 38.080 30.78 76.76 60.78 116 90 19.9 5.040 34.58-1.3 44-19zM1023 461c0-8 0-16 0-24-4.3-8.62-10.96-14.94-20-19-43.34-1.32-86.68-1.32-130 0-21.18 10.88-26.86 27.22-17 49 4.56 5.94 10.24 10.26 17 13 43.32 1.34 86.66 1.34 130 0 9.040-4.040 15.7-10.36 20-19zM1023 237c0-8 0-16 0-24-12.42-20.64-29.76-25.64-52-15-35.44 29.44-71.44 58.1-108 86-16.4 18.58-15.74 36.58 2 54 15.54 7.66 30.22 6.32 44-4 33.32-26.66 66.66-53.32 100-80 5.9-4.88 10.56-10.54 14-17z" />
</font>
</defs>
</svg>
